<svg width="54" height="25" viewBox="0 0 54 25" fill="none" xmlns="http://www.w3.org/2000/svg">
<g clip-path="url(#clip0_2268_1139)">
<path fill-rule="evenodd" clip-rule="evenodd" d="M3.71436 0.00195312H6.28533V23.9503H3.71436V0.00195312Z" fill="#221F20"/>
<path fill-rule="evenodd" clip-rule="evenodd" d="M7.09863 0.00195312H7.89261V23.9503H7.09863V0.00195312Z" fill="#221F20"/>
<path fill-rule="evenodd" clip-rule="evenodd" d="M8.5874 0.00195312H10.0147V23.9503H8.5874V0.00195312Z" fill="#221F20"/>
<path fill-rule="evenodd" clip-rule="evenodd" d="M11.3896 0.00195312H12.1884V23.9503H11.3896V0.00195312Z" fill="#221F20"/>
<path fill-rule="evenodd" clip-rule="evenodd" d="M12.5337 0.00195312H13.1481V23.9503H12.5337V0.00195312Z" fill="#221F20"/>
<path fill-rule="evenodd" clip-rule="evenodd" d="M1.7583 0.00195312H2.55701V23.9503H1.7583V0.00195312Z" fill="#221F20"/>
<path fill-rule="evenodd" clip-rule="evenodd" d="M0 0.00195312H1.42727V23.9503H0V0.00195312Z" fill="#221F20"/>
<path fill-rule="evenodd" clip-rule="evenodd" d="M17.4106 0.00195312H19.9816V23.9503H17.4106V0.00195312Z" fill="#221F20"/>
<path fill-rule="evenodd" clip-rule="evenodd" d="M20.7896 0.00195312H21.5883V23.9503H20.7896V0.00195312Z" fill="#221F20"/>
<path fill-rule="evenodd" clip-rule="evenodd" d="M22.2837 0.00195312H23.711V23.9503H22.2837V0.00195312Z" fill="#221F20"/>
<path fill-rule="evenodd" clip-rule="evenodd" d="M25.0859 0.00195312H25.8799V23.9503H25.0859V0.00195312Z" fill="#221F20"/>
<path fill-rule="evenodd" clip-rule="evenodd" d="M26.2295 0.00195312H26.8439V23.9503H26.2295V0.00195312Z" fill="#221F20"/>
<path fill-rule="evenodd" clip-rule="evenodd" d="M15.4541 0.00195312H16.2481V23.9503H15.4541V0.00195312Z" fill="#221F20"/>
<path fill-rule="evenodd" clip-rule="evenodd" d="M13.6958 0.00195312H15.1231V23.9503H13.6958V0.00195312Z" fill="#221F20"/>
<path fill-rule="evenodd" clip-rule="evenodd" d="M27.8555 0.00195312H29.278V23.9503H27.8555V0.00195312Z" fill="#221F20"/>
<path fill-rule="evenodd" clip-rule="evenodd" d="M30.6533 0.00195312H31.452V23.9503H30.6533V0.00195312Z" fill="#221F20"/>
<path fill-rule="evenodd" clip-rule="evenodd" d="M31.7969 0.00195312H32.4113V23.9503H31.7969V0.00195312Z" fill="#221F20"/>
<path fill-rule="evenodd" clip-rule="evenodd" d="M34.7178 0.00195312H35.5165V23.9503H34.7178V0.00195312Z" fill="#221F20"/>
<path fill-rule="evenodd" clip-rule="evenodd" d="M32.9595 0.00195312H34.3867V23.9503H32.9595V0.00195312Z" fill="#221F20"/>
<path fill-rule="evenodd" clip-rule="evenodd" d="M36.5752 0.00195312H37.3739V23.9503H36.5752V0.00195312Z" fill="#221F20"/>
<path fill-rule="evenodd" clip-rule="evenodd" d="M37.7188 0.00195312H38.3331V23.9503H37.7188V0.00195312Z" fill="#221F20"/>
<path fill-rule="evenodd" clip-rule="evenodd" d="M40.6348 0.00195312H41.4335V23.9503H40.6348V0.00195312Z" fill="#221F20"/>
<path fill-rule="evenodd" clip-rule="evenodd" d="M38.8765 0.00195312H40.3037V23.9503H38.8765V0.00195312Z" fill="#221F20"/>
<path fill-rule="evenodd" clip-rule="evenodd" d="M42.1279 0.00195312H44.6989V23.9503H42.1279V0.00195312Z" fill="#221F20"/>
<path fill-rule="evenodd" clip-rule="evenodd" d="M45.5122 0.00195312H46.3062V23.9503H45.5122V0.00195312Z" fill="#221F20"/>
<path fill-rule="evenodd" clip-rule="evenodd" d="M47.001 0.00195312H48.4282V23.9503H47.001V0.00195312Z" fill="#221F20"/>
<path fill-rule="evenodd" clip-rule="evenodd" d="M49.8032 0.00195312H50.6019V23.9503H49.8032V0.00195312Z" fill="#221F20"/>
<path fill-rule="evenodd" clip-rule="evenodd" d="M50.9473 0.00195312H51.5617V23.9503H50.9473V0.00195312Z" fill="#221F20"/>
<path fill-rule="evenodd" clip-rule="evenodd" d="M52.5728 0.00195312H54V23.9503H52.5728V0.00195312Z" fill="#221F20"/>
<path fill-rule="evenodd" clip-rule="evenodd" d="M2.91113 24.0017H52.2087V10.5801H2.91113V24.0017Z" fill="white"/>
<path d="M3.8374 23.4985V11.3458H8.42169C9.18712 11.3172 9.95052 11.4419 10.6666 11.7123C11.2153 11.9463 11.6776 12.3436 11.9899 12.8496C12.2988 13.3276 12.4628 13.8839 12.4625 14.4521C12.4619 14.9687 12.3162 15.4749 12.0418 15.9136C11.7309 16.3991 11.2864 16.7857 10.7611 17.0274C11.435 17.1965 12.0335 17.5833 12.4625 18.1271C12.8662 18.6542 13.0778 19.3021 13.0627 19.9645C13.0668 20.5149 12.9422 21.0587 12.6988 21.5529C12.4928 21.9952 12.1852 22.3831 11.8008 22.6855C11.4011 22.9709 10.9479 23.1739 10.4681 23.2823C9.82559 23.4335 9.16694 23.5061 8.50676 23.4985H3.8374ZM5.45844 16.4494H8.10032C8.61789 16.4701 9.13595 16.4227 9.64102 16.3084C10.0155 16.2173 10.3484 16.0038 10.5862 15.7022C10.8035 15.3895 10.9129 15.0152 10.8981 14.6354C10.9054 14.2607 10.8036 13.8919 10.6051 13.5733C10.416 13.2671 10.1198 13.0411 9.77334 12.9389C9.16457 12.8005 8.53993 12.7436 7.916 12.7697H5.47263V16.4494H5.45844ZM5.45844 22.0652H8.50676C8.87485 22.0733 9.24303 22.0529 9.60794 22.0041C9.94127 21.9556 10.2621 21.8439 10.5531 21.6751C10.816 21.5059 11.0295 21.2709 11.1723 20.9937C11.3375 20.6777 11.4204 20.3254 11.4133 19.9692C11.4237 19.5472 11.2996 19.1327 11.0588 18.785C10.8262 18.446 10.4845 18.1958 10.09 18.0754C9.50768 17.9213 8.90577 17.8532 8.30354 17.8733H5.4679V22.0887L5.45844 22.0652Z" fill="#221F20"/>
<path d="M14.5327 19.0873C14.5327 17.4613 14.988 16.2582 15.8986 15.4781C16.673 14.8213 17.6647 14.473 18.6822 14.5006C19.2352 14.4807 19.7863 14.5761 20.3 14.7809C20.8136 14.9857 21.2784 15.2952 21.6644 15.6896C22.0678 16.1337 22.3779 16.6535 22.5768 17.2183C22.7756 17.7832 22.859 18.3819 22.8222 18.9792C22.8656 19.895 22.6907 20.808 22.3118 21.6438C21.9778 22.2844 21.4573 22.8101 20.8184 23.1523C20.165 23.5119 19.4289 23.6965 18.6822 23.688C18.1268 23.7116 17.5726 23.6188 17.0556 23.4156C16.5385 23.2123 16.0703 22.9033 15.6811 22.5085C14.9155 21.719 14.5327 20.5833 14.5327 19.1014V19.0873ZM16.0687 19.0873C15.999 19.9902 16.2628 20.8875 16.8107 21.6109C17.0431 21.8761 17.33 22.0886 17.652 22.2343C17.974 22.3799 18.3237 22.4553 18.6775 22.4553C19.0312 22.4553 19.3809 22.3799 19.7029 22.2343C20.0249 22.0886 20.3118 21.8761 20.5443 21.6109C21.0169 21.0517 21.2862 20.201 21.2862 19.045C21.3497 18.1594 21.084 17.2814 20.5396 16.5778C20.3067 16.3141 20.0199 16.1028 19.6984 15.9581C19.3769 15.8134 19.028 15.7385 18.6751 15.7385C18.3222 15.7385 17.9733 15.8134 17.6518 15.9581C17.3303 16.1028 17.0435 16.3141 16.8107 16.5778C16.316 17.1198 16.0687 17.9579 16.0687 19.092V19.0873Z" fill="#221F20"/>
<path d="M24.5469 23.489V11.3457H26.0498V23.489H24.5469Z" fill="#221F20"/>
<path d="M34.4105 20.6379L35.9607 20.8446C35.7606 21.6723 35.2841 22.4079 34.609 22.9312C33.7584 23.483 32.7479 23.739 31.7354 23.659C30.723 23.5791 29.7657 23.1678 29.0133 22.4894C28.2107 21.5714 27.8033 20.3764 27.8791 19.1622C27.8791 17.6866 28.2572 16.54 29.0228 15.7223C29.4027 15.3192 29.8649 15.0016 30.3785 14.7909C30.892 14.5802 31.445 14.4811 32.0002 14.5004C32.5397 14.4836 33.0765 14.5819 33.5746 14.7886C34.0726 14.9953 34.5204 15.3056 34.8878 15.6988C35.6393 16.4977 36.0126 17.6255 36.0126 19.073C36.0126 19.1622 36.0126 19.2938 36.0126 19.4677H29.4103C29.4069 20.2823 29.7008 21.0704 30.2374 21.6858C30.4726 21.9363 30.7584 22.1344 31.0761 22.2673C31.3937 22.4001 31.736 22.4646 32.0806 22.4565C32.5883 22.473 33.0872 22.3209 33.4984 22.0242C33.9452 21.666 34.2743 21.1832 34.4436 20.6379H34.4105ZM29.4954 18.2506H34.4247C34.4104 17.6508 34.2144 17.0694 33.8623 16.5823C33.6408 16.3058 33.3577 16.0842 33.0354 15.9349C32.7131 15.7857 32.3603 15.7129 32.0049 15.7223C31.6849 15.7142 31.3666 15.7708 31.0692 15.8887C30.7719 16.0067 30.5017 16.1835 30.2752 16.4084C29.7908 16.9026 29.5123 17.5607 29.4954 18.2506Z" fill="#221F20"/>
<path d="M41.1166 22.1561L41.3198 23.4766C40.9485 23.5571 40.5702 23.6011 40.1902 23.6082C39.7542 23.6325 39.3193 23.5434 38.9284 23.3497C38.6476 23.2025 38.4246 22.9659 38.2951 22.6777C38.1376 22.1026 38.0769 21.5055 38.1155 20.9107V15.84H37.0049V14.6887H38.1155V12.5128L39.6137 11.6152V14.6887H41.1166V15.84H39.6137V21.0094C39.594 21.2861 39.6212 21.5641 39.694 21.8318C39.7451 21.9538 39.8347 22.0561 39.9492 22.1232C40.1068 22.2034 40.2829 22.2407 40.4596 22.2313C40.6798 22.2273 40.8994 22.2069 41.1166 22.1702V22.1561Z" fill="#221F20"/>
<path d="M42.0337 19.0873C42.0337 17.4613 42.489 16.2582 43.3995 15.4781C44.174 14.8213 45.1657 14.473 46.1832 14.5006C46.7362 14.4807 47.2873 14.5761 47.8009 14.7809C48.3146 14.9857 48.7794 15.2952 49.1653 15.6896C49.5687 16.1337 49.8789 16.6535 50.0777 17.2183C50.2766 17.7832 50.36 18.3819 50.3232 18.9792C50.3628 19.8871 50.188 20.7916 49.8128 21.6203C49.4773 22.2599 48.9573 22.7852 48.3193 23.1288C47.666 23.4884 46.9299 23.673 46.1832 23.6645C45.6271 23.6876 45.0723 23.5945 44.5546 23.3914C44.0369 23.1882 43.5678 22.8795 43.1774 22.485C42.4149 21.6955 42.0337 20.5598 42.0337 19.0779V19.0873ZM43.5697 19.0873C43.5 19.9902 43.7638 20.8875 44.3117 21.6109C44.5441 21.8761 44.831 22.0886 45.153 22.2343C45.475 22.3799 45.8247 22.4553 46.1785 22.4553C46.5322 22.4553 46.8819 22.3799 47.2039 22.2343C47.5259 22.0886 47.8128 21.8761 48.0452 21.6109C48.5415 21.0517 48.7872 20.2011 48.7872 19.045C48.8507 18.1594 48.585 17.2814 48.0405 16.5778C47.8077 16.3141 47.5209 16.1028 47.1994 15.9581C46.8779 15.8134 46.529 15.7385 46.1761 15.7385C45.8232 15.7385 45.4743 15.8134 45.1528 15.9581C44.8313 16.1028 44.5445 16.3141 44.3117 16.5778C43.817 17.1323 43.5697 17.972 43.5697 19.0967V19.0873Z" fill="#221F20"/>
</g>
<defs>
<clipPath id="clip0_2268_1139">
<rect width="54" height="24" fill="white" transform="translate(0 0.00195312)"/>
</clipPath>
</defs>
</svg>
