<svg width="66" height="24" viewBox="0 0 66 24" fill="none" xmlns="http://www.w3.org/2000/svg">
<g clip-path="url(#clip0_5683_224355)">
<path d="M27.1675 22.3829C27.0604 22.3824 26.9578 22.3395 26.8821 22.2634C26.8064 22.1873 26.7636 22.0842 26.7632 21.9766V8.78618C26.765 7.51349 27.269 6.29348 28.1647 5.39372C29.0604 4.49396 30.2747 3.98789 31.5412 3.98652H35.4176C36.6806 3.99109 37.8904 4.49802 38.7825 5.39646C39.6747 6.29491 40.1765 7.51177 40.1783 8.78099V11.5871C40.1769 12.8601 39.6731 14.0806 38.7774 14.9807C37.8816 15.8808 36.6671 16.3871 35.4003 16.3885H29.9256C29.8183 16.3885 29.7155 16.3457 29.6397 16.2695C29.5638 16.1933 29.5212 16.09 29.5212 15.9822C29.5212 15.8744 29.5638 15.7711 29.6397 15.6949C29.7155 15.6187 29.8183 15.5759 29.9256 15.5759H35.4003C36.4527 15.5745 37.4615 15.1538 38.2056 14.4061C38.9497 13.6584 39.3683 12.6446 39.3697 11.5871V8.78618C39.3669 7.73234 38.9491 6.72245 38.2076 5.97728C37.466 5.2321 36.4611 4.81226 35.4124 4.80952H31.536C30.484 4.81135 29.4756 5.23223 28.7319 5.97992C27.9882 6.72761 27.5698 7.74111 27.5684 8.79828V21.9887C27.5653 22.0937 27.5218 22.1935 27.447 22.267C27.3723 22.3405 27.2721 22.382 27.1675 22.3829ZM44.3317 16.4525C44.2245 16.4525 44.1216 16.4097 44.0458 16.3335C43.97 16.2573 43.9274 16.1539 43.9274 16.0462V6.19097C43.9274 5.8203 43.781 5.46478 43.5203 5.20252C43.2596 4.94025 42.906 4.79268 42.5372 4.79223H40.8579C40.8027 4.79585 40.7474 4.78805 40.6953 4.76932C40.6432 4.75058 40.5955 4.7213 40.5551 4.6833C40.5148 4.6453 40.4826 4.59937 40.4606 4.54837C40.4386 4.49737 40.4272 4.44237 40.4272 4.38678C40.4272 4.33119 40.4386 4.27619 40.4606 4.22519C40.4826 4.17419 40.5148 4.12826 40.5551 4.09025C40.5955 4.05225 40.6432 4.02297 40.6953 4.00424C40.7474 3.9855 40.8027 3.97771 40.8579 3.98133H42.5389C43.1219 3.98179 43.681 4.21474 44.0932 4.62903C44.5055 5.04332 44.7373 5.60508 44.7378 6.19097V16.0462C44.7378 16.0997 44.7273 16.1527 44.7068 16.2021C44.6864 16.2515 44.6565 16.2963 44.6187 16.3341C44.581 16.3718 44.5362 16.4017 44.487 16.4221C44.4377 16.4424 44.385 16.4527 44.3317 16.4525Z" fill="#939598"/>
<path d="M43.972 2.86367L43.2098 2.096C43.1642 2.0508 43.128 1.99696 43.1033 1.9376C43.0786 1.87824 43.0659 1.81454 43.0659 1.7502C43.0659 1.68586 43.0786 1.62216 43.1033 1.5628C43.128 1.50344 43.1642 1.4496 43.2098 1.40441L43.972 0.640192C44.0167 0.593975 44.0702 0.557238 44.1293 0.532152C44.1884 0.507066 44.2519 0.494141 44.3161 0.494141C44.3803 0.494141 44.4438 0.507066 44.5029 0.532152C44.562 0.557238 44.6155 0.593975 44.6602 0.640192L45.4224 1.40441C45.468 1.4496 45.5042 1.50344 45.5288 1.5628C45.5535 1.62216 45.5663 1.68586 45.5663 1.7502C45.5663 1.81454 45.5535 1.87824 45.5288 1.9376C45.5042 1.99696 45.468 2.0508 45.4224 2.096L44.6602 2.86367C44.6152 2.90946 44.5616 2.94582 44.5026 2.97064C44.4435 2.99545 44.3801 3.00823 44.3161 3.00823C44.2521 3.00823 44.1887 2.99545 44.1296 2.97064C44.0705 2.94582 44.017 2.90946 43.972 2.86367Z" fill="#32BCAD"/>
<path d="M49.2249 16.3654H47.5577C47.4504 16.3654 47.3476 16.3226 47.2718 16.2464C47.1959 16.1702 47.1533 16.0668 47.1533 15.9591C47.1533 15.8513 47.1959 15.7479 47.2718 15.6717C47.3476 15.5955 47.4504 15.5527 47.5577 15.5527H49.2249C49.5965 15.5536 49.9647 15.4806 50.3081 15.3379C50.6515 15.1952 50.9634 14.9855 51.2259 14.7211L55.1246 10.8015C55.2822 10.643 55.4693 10.5173 55.6752 10.4316C55.8811 10.3458 56.1018 10.3017 56.3247 10.3017C56.5476 10.3017 56.7683 10.3458 56.9743 10.4316C57.1802 10.5173 57.3673 10.643 57.5248 10.8015L61.4098 14.7055C61.6716 14.9711 61.9833 15.1819 62.3268 15.3255C62.6703 15.4692 63.0388 15.5429 63.4108 15.5424H64.7735C64.8807 15.5424 64.9836 15.5852 65.0594 15.6614C65.1352 15.7376 65.1778 15.8409 65.1778 15.9487C65.1778 16.0564 65.1352 16.1598 65.0594 16.236C64.9836 16.3122 64.8807 16.355 64.7735 16.355H63.4177C62.9398 16.3564 62.4664 16.2625 62.0249 16.0788C61.5834 15.8951 61.1825 15.6252 60.8455 15.2848L56.9605 11.3807C56.8781 11.2973 56.7801 11.2311 56.6722 11.186C56.5643 11.1408 56.4485 11.1176 56.3316 11.1176C56.2147 11.1176 56.0989 11.1408 55.991 11.186C55.8831 11.2311 55.7851 11.2973 55.7027 11.3807L51.804 15.2986C51.4659 15.6393 51.0637 15.909 50.621 16.0921C50.1782 16.2753 49.7037 16.3681 49.2249 16.3654ZM56.3256 10.0373C56.1018 10.0387 55.8801 9.99529 55.6733 9.90949C55.4664 9.82368 55.2788 9.69725 55.1212 9.53761L51.2224 5.61973C50.9603 5.35476 50.6485 5.14467 50.305 5.00163C49.9615 4.85858 49.5932 4.78541 49.2214 4.78637H47.5542C47.499 4.78999 47.4437 4.78219 47.3916 4.76346C47.3395 4.74472 47.2918 4.71545 47.2514 4.67744C47.2111 4.63944 47.1789 4.59352 47.1569 4.54251C47.1349 4.49151 47.1235 4.43651 47.1235 4.38092C47.1235 4.32533 47.1349 4.27033 47.1569 4.21933C47.1789 4.16833 47.2111 4.1224 47.2514 4.0844C47.2918 4.04639 47.3395 4.01711 47.3916 3.99838C47.4437 3.97964 47.499 3.97185 47.5542 3.97547H49.2214C49.6993 3.97407 50.1727 4.06793 50.6142 4.25164C51.0558 4.43535 51.4566 4.70525 51.7937 5.04571L55.6959 8.97223C55.8629 9.13937 56.089 9.23321 56.3247 9.23321C56.5604 9.23321 56.7866 9.13937 56.9536 8.97223L60.8386 5.06819C61.1756 4.72773 61.5765 4.45783 62.018 4.27412C62.4595 4.09041 62.9329 3.99654 63.4108 3.99795H64.7735C64.8266 3.99795 64.8792 4.00846 64.9282 4.02888C64.9773 4.0493 65.0218 4.07923 65.0594 4.11696C65.0969 4.15469 65.1267 4.19948 65.147 4.24877C65.1673 4.29807 65.1778 4.3509 65.1778 4.40426C65.1778 4.45762 65.1673 4.51045 65.147 4.55975C65.1267 4.60905 65.0969 4.65384 65.0594 4.69157C65.0218 4.7293 64.9773 4.75923 64.9282 4.77965C64.8792 4.80006 64.8266 4.81057 64.7735 4.81057H63.4177C63.046 4.80967 62.6779 4.8827 62.3345 5.02543C61.991 5.16817 61.6791 5.37778 61.4167 5.64221L57.5317 9.54626C57.3733 9.70463 57.185 9.82963 56.9779 9.91395C56.7708 9.99827 56.549 10.0402 56.3256 10.0373Z" fill="#939598"/>
<path d="M17.2285 18.4628C16.8171 18.4639 16.4096 18.3831 16.0295 18.2249C15.6494 18.0667 15.3043 17.8343 15.0141 17.5412L11.8156 14.3322C11.7025 14.2231 11.5518 14.1621 11.395 14.1621C11.2382 14.1621 11.0874 14.2231 10.9743 14.3322L7.76376 17.5585C7.47378 17.8519 7.12875 18.0846 6.74865 18.2431C6.36855 18.4016 5.96093 18.4827 5.54941 18.4818H4.91797L8.96986 22.5535C9.57767 23.1637 10.4017 23.5064 11.2608 23.5064C12.1199 23.5064 12.9439 23.1637 13.5517 22.5535L17.6139 18.4697L17.2285 18.4628Z" fill="#32BCAD"/>
<path d="M5.54916 7.0966C5.96055 7.09544 6.3681 7.17629 6.74819 7.33447C7.12829 7.49266 7.47338 7.72503 7.7635 8.01815L10.974 11.2444C11.0857 11.3565 11.237 11.4194 11.3947 11.4194C11.5525 11.4194 11.7038 11.3565 11.8154 11.2444L15.0139 8.03025C15.304 7.73713 15.6491 7.50476 16.0292 7.34658C16.4093 7.18839 16.8168 7.10754 17.2282 7.10871H17.6136L13.5514 3.02658C13.2507 2.72405 12.8936 2.48404 12.5005 2.3203C12.1074 2.15655 11.686 2.07227 11.2605 2.07227C10.835 2.07227 10.4136 2.15655 10.0205 2.3203C9.62745 2.48404 9.27034 2.72405 8.96961 3.02658L4.91943 7.0966H5.54916Z" fill="#32BCAD"/>
<path d="M20.9756 10.4818L18.5203 8.0145C18.4657 8.03695 18.4073 8.04869 18.3483 8.04908H17.2334C16.6525 8.05081 16.0959 8.28325 15.6849 8.69572L12.4812 11.9116C12.1931 12.2007 11.8027 12.3631 11.3955 12.3631C10.9884 12.3631 10.598 12.2007 10.3099 11.9116L7.09934 8.68535C6.68752 8.27431 6.13127 8.04264 5.55084 8.04044H4.17441C4.11533 8.04057 4.05683 8.02882 4.00235 8.00586L1.53853 10.4835C1.23747 10.7857 0.998639 11.1446 0.835689 11.5396C0.67274 11.9346 0.588867 12.358 0.588867 12.7856C0.588867 13.2132 0.67274 13.6367 0.835689 14.0317C0.998639 14.4267 1.23747 14.7856 1.53853 15.0878L4.00235 17.5654C4.05683 17.5424 4.11533 17.5307 4.17441 17.5308H5.55084C6.13127 17.5286 6.68752 17.297 7.09934 16.8859L10.3099 13.6596C10.6024 13.3791 10.9912 13.2226 11.3955 13.2226C11.7999 13.2226 12.1887 13.3791 12.4812 13.6596L15.6797 16.8738C16.0911 17.2856 16.6475 17.518 17.2282 17.5205H18.3431C18.4021 17.5208 18.4605 17.5326 18.5152 17.555L20.9704 15.0878C21.5776 14.477 21.9186 13.649 21.9186 12.7856C21.9186 11.9223 21.5776 11.0943 20.9704 10.4835L20.9756 10.4818Z" fill="#32BCAD"/>
<path d="M30.5001 20.852C30.2973 20.8617 30.0961 20.8924 29.8996 20.9437V21.7477C30.0498 21.8012 30.2082 21.8281 30.3676 21.8272C30.7685 21.8272 30.9595 21.6906 30.9595 21.3362C30.9595 20.9817 30.8029 20.852 30.5001 20.852ZM29.7637 22.3459V20.7552H29.8738L29.8858 20.8244C30.0908 20.7701 30.3006 20.7365 30.5121 20.7241C30.6583 20.7141 30.8034 20.7563 30.9216 20.8434C30.9869 20.9065 31.0373 20.9835 31.0688 21.0688C31.1004 21.1542 31.1124 21.2455 31.104 21.3362C31.1129 21.4382 31.0936 21.5406 31.048 21.6322C31.0024 21.7238 30.9325 21.8009 30.8459 21.8549C30.7016 21.9264 30.5422 21.962 30.3814 21.9586C30.218 21.9576 30.0557 21.9325 29.8996 21.8843V22.3528L29.7637 22.3459Z" fill="#939598"/>
<path d="M32.111 20.8509C31.7102 20.8509 31.5312 20.9789 31.5312 21.3333C31.5312 21.6878 31.7033 21.8313 32.111 21.8313C32.5188 21.8313 32.6891 21.7068 32.6891 21.3523C32.6891 20.9979 32.5171 20.8509 32.111 20.8509ZM32.6272 21.8313C32.4722 21.9256 32.2918 21.9691 32.111 21.9557C31.9304 21.9681 31.7503 21.9247 31.5949 21.8313C31.5225 21.7736 31.4656 21.6985 31.4296 21.6131C31.3935 21.5276 31.3793 21.4344 31.3884 21.342C31.38 21.2494 31.3944 21.1561 31.4304 21.0705C31.4665 20.9848 31.5229 20.9094 31.5949 20.8509C31.7551 20.7704 31.9319 20.7285 32.111 20.7285C32.2902 20.7285 32.4669 20.7704 32.6272 20.8509C32.6925 20.9146 32.7444 20.9908 32.7799 21.075C32.8153 21.1592 32.8336 21.2497 32.8336 21.3411C32.8336 21.4325 32.8153 21.523 32.7799 21.6072C32.7444 21.6914 32.6925 21.7676 32.6272 21.8313Z" fill="#939598"/>
<path d="M34.5247 21.9214L34.0773 20.9566H34.0687L33.6283 21.9214H33.5078L33.0312 20.7578H33.1792L33.5767 21.7347H33.5853L34.0154 20.7578H34.1393L34.5832 21.7347H34.5918L34.9789 20.7578H35.1234L34.6468 21.9214H34.5247Z" fill="#939598"/>
<path d="M35.9875 20.8452C35.6176 20.8452 35.4903 21.0181 35.4713 21.2515H36.5123C36.5002 20.987 36.366 20.8452 35.9961 20.8452H35.9875ZM35.9875 21.9518C35.8165 21.9694 35.6451 21.9233 35.5058 21.8221C35.3838 21.6861 35.3192 21.5079 35.3256 21.3249C35.3321 21.142 35.409 20.9687 35.5402 20.8418C35.6749 20.7571 35.8322 20.7161 35.9909 20.7242C36.1535 20.7142 36.3153 20.7533 36.4555 20.8366C36.6275 20.949 36.6551 21.1478 36.6551 21.3726H35.4662C35.4662 21.6129 35.5488 21.8238 35.9978 21.8238C36.1989 21.8188 36.3992 21.7969 36.5966 21.7581V21.8791C36.396 21.921 36.1922 21.9453 35.9875 21.9518Z" fill="#939598"/>
<path d="M37.0391 21.9232V20.7596H37.1492L37.1612 20.8288C37.347 20.7677 37.5405 20.734 37.7359 20.7285H37.7531V20.8565H37.7204C37.5352 20.8606 37.3515 20.8915 37.175 20.9481V21.9232H37.0391Z" fill="#939598"/>
<path d="M38.5381 20.8453C38.1665 20.8453 38.0409 21.0182 38.022 21.2516H39.0543C39.0439 20.987 38.908 20.8453 38.5381 20.8453ZM38.5381 21.9518C38.3676 21.9702 38.1964 21.9239 38.0581 21.8221C37.9349 21.6868 37.8695 21.5082 37.8759 21.3249C37.8824 21.1416 37.9601 20.9681 38.0925 20.8418C38.2271 20.7567 38.3845 20.7157 38.5433 20.7242C38.7053 20.7141 38.8666 20.7532 39.0061 20.8366C39.1781 20.949 39.2057 21.1478 39.2057 21.3726H38.0185C38.0185 21.6129 38.1011 21.8239 38.5501 21.8239C38.7476 21.8206 38.9444 21.8009 39.1386 21.7651V21.8861C38.9375 21.928 38.7331 21.9523 38.5278 21.9587L38.5381 21.9518Z" fill="#939598"/>
<path d="M40.6866 20.9298C40.5364 20.8762 40.3781 20.8493 40.2186 20.8502C39.8178 20.8502 39.6285 20.9868 39.6285 21.3413C39.6285 21.6957 39.7833 21.8254 40.0862 21.8254C40.2889 21.8164 40.4901 21.7862 40.6866 21.7355V20.9298ZM40.7124 21.9222L40.7004 21.8531C40.4961 21.9078 40.2869 21.9419 40.0758 21.9551C39.9939 21.9659 39.9106 21.9572 39.8326 21.9299C39.7545 21.9026 39.6839 21.8573 39.6264 21.7976C39.5689 21.738 39.5261 21.6657 39.5013 21.5864C39.4766 21.5072 39.4707 21.4232 39.484 21.3413C39.4758 21.241 39.4955 21.1405 39.5407 21.0507C39.586 20.961 39.6551 20.8856 39.7403 20.833C39.8851 20.759 40.046 20.7227 40.2083 20.7275C40.3703 20.7297 40.5312 20.7542 40.6866 20.8001V20.2676H40.8226V21.9222H40.7124Z" fill="#939598"/>
<path d="M42.7999 20.8554C42.5971 20.8652 42.3959 20.8959 42.1994 20.9471V21.7493C42.3494 21.8039 42.5078 21.8314 42.6674 21.8306C43.0683 21.8306 43.2593 21.694 43.2593 21.3395C43.2593 20.9851 43.1027 20.8554 42.7999 20.8554ZM43.144 21.8513C42.9991 21.9229 42.8392 21.9585 42.6777 21.9551C42.5021 21.9533 42.3279 21.9235 42.1615 21.8669V21.9222H42.0635V20.2676H42.1977V20.8226C42.3985 20.7722 42.6036 20.7404 42.8102 20.7275C42.957 20.7173 43.1026 20.7596 43.2214 20.8468C43.2864 20.91 43.3364 20.9871 43.3677 21.0724C43.399 21.1578 43.4107 21.249 43.4021 21.3395C43.411 21.4413 43.3918 21.5436 43.3465 21.6352C43.3013 21.7267 43.2318 21.8039 43.1457 21.8582L43.144 21.8513Z" fill="#939598"/>
<path d="M43.5817 22.3675V22.2413C43.6488 22.2413 43.7108 22.2534 43.7538 22.2534C43.8326 22.2614 43.9117 22.2419 43.9778 22.1981C44.044 22.1543 44.0931 22.089 44.1168 22.0131L44.1598 21.9214L43.5542 20.7578H43.7108L44.2269 21.7624H44.2355L44.7293 20.7578H44.8825L44.2321 22.0649C44.1971 22.1638 44.1306 22.2484 44.0428 22.3053C43.955 22.3622 43.851 22.3883 43.7469 22.3796C43.6893 22.3799 43.6318 22.3759 43.5748 22.3675H43.5817Z" fill="#939598"/>
<path d="M46.7481 21.2579H46.299V21.666H46.7515C47.0595 21.666 47.1765 21.6314 47.1765 21.462C47.1765 21.2925 47.0165 21.2579 46.7481 21.2579ZM46.6655 20.5975H46.299V21.0124H46.6689C46.9735 21.0124 47.0939 20.9744 47.0939 20.8032C47.0939 20.632 46.9408 20.5975 46.6655 20.5975ZM47.3623 21.8078C47.1902 21.9132 46.9993 21.9184 46.6345 21.9184H45.9463V20.3398H46.6156C46.9304 20.3398 47.1231 20.3398 47.2832 20.4419C47.3363 20.4737 47.3795 20.5199 47.4078 20.5753C47.4361 20.6306 47.4484 20.6928 47.4432 20.7548C47.4462 20.832 47.4235 20.9079 47.3786 20.9706C47.3337 21.0333 47.2692 21.079 47.1954 21.1006V21.1092C47.3984 21.1559 47.5292 21.2597 47.5292 21.4827C47.5329 21.5468 47.5188 21.6107 47.4884 21.6672C47.458 21.7237 47.4126 21.7706 47.3571 21.8026L47.3623 21.8078Z" fill="#939598"/>
<path d="M48.902 21.4336C48.7661 21.4215 48.6284 21.4146 48.4839 21.4146C48.2482 21.4146 48.1656 21.463 48.1656 21.5702C48.1656 21.6774 48.2344 21.7275 48.4151 21.7275C48.5793 21.7212 48.7425 21.6981 48.902 21.6584V21.4336ZM48.9708 21.9212L48.9605 21.852C48.7557 21.9099 48.545 21.9441 48.3325 21.954C48.2118 21.9605 48.0919 21.9304 47.9884 21.8676C47.9434 21.8292 47.9084 21.7803 47.8867 21.7251C47.8649 21.67 47.857 21.6103 47.8636 21.5513C47.8702 21.4924 47.8912 21.436 47.9247 21.3871C47.9581 21.3382 48.0031 21.2984 48.0555 21.2711C48.1942 21.2206 48.3418 21.1994 48.4891 21.2088C48.6095 21.2088 48.773 21.2088 48.9089 21.2261V21.2054C48.9089 21.0221 48.7884 20.9633 48.4633 20.9633C48.3377 20.9633 48.1845 20.9633 48.0366 20.9841V20.7489C48.2 20.7351 48.3807 20.7265 48.5338 20.7265C48.7204 20.71 48.9077 20.7472 49.0741 20.8337C49.1326 20.8806 49.1779 20.9423 49.2054 21.0123C49.2329 21.0824 49.2416 21.1585 49.2306 21.233V21.9246L48.9708 21.9212Z" fill="#939598"/>
<path d="M50.7367 21.922V21.2788C50.7367 21.0678 50.6283 20.9918 50.4356 20.9918C50.2763 20.9989 50.1182 21.0233 49.9641 21.0644V21.9289H49.6338V20.7653H49.897L49.9091 20.8396C50.1106 20.7797 50.3186 20.7442 50.5285 20.7341C50.6706 20.7231 50.8117 20.7656 50.9242 20.8534C50.9705 20.9009 51.0057 20.9581 51.0274 21.0209C51.0491 21.0836 51.0568 21.1505 51.0498 21.2165V21.9289L50.7367 21.922Z" fill="#939598"/>
<path d="M51.9695 21.9529C51.8162 21.9644 51.6638 21.9209 51.5394 21.8302C51.4734 21.7676 51.4224 21.6907 51.3905 21.6052C51.3586 21.5198 51.3466 21.4282 51.3553 21.3374C51.3492 21.2411 51.3676 21.1449 51.4089 21.0577C51.4501 20.9706 51.5128 20.8955 51.591 20.8395C51.7481 20.7512 51.9277 20.7115 52.1072 20.7254C52.2397 20.7254 52.3704 20.7254 52.5149 20.7478V20.9968C52.3979 20.9847 52.2586 20.9761 52.1467 20.9761C51.8388 20.9761 51.6942 21.0729 51.6942 21.3392C51.6942 21.6054 51.8026 21.6988 52.0538 21.6988C52.2175 21.6934 52.3805 21.6738 52.5407 21.64V21.8786C52.3554 21.9215 52.1665 21.9464 51.9764 21.9529H51.9695Z" fill="#939598"/>
<path d="M53.4885 20.9708C53.1805 20.9708 53.0463 21.0677 53.0463 21.3322C53.0463 21.5967 53.1788 21.7091 53.4885 21.7091C53.7982 21.7091 53.9255 21.6157 53.9255 21.3495C53.9255 21.0832 53.7948 20.9708 53.4885 20.9708ZM54.0425 21.8353C53.8742 21.931 53.6812 21.9737 53.4885 21.9581C53.2947 21.9737 53.1006 21.931 52.9311 21.8353C52.8623 21.7734 52.8072 21.6976 52.7695 21.6128C52.7319 21.528 52.7124 21.4363 52.7124 21.3434C52.7124 21.2506 52.7319 21.1588 52.7695 21.0741C52.8072 20.9893 52.8623 20.9135 52.9311 20.8515C53.1056 20.7718 53.2951 20.7305 53.4868 20.7305C53.6785 20.7305 53.868 20.7718 54.0425 20.8515C54.1104 20.9141 54.1645 20.9901 54.2016 21.0747C54.2387 21.1594 54.2578 21.2509 54.2578 21.3434C54.2578 21.4359 54.2387 21.5274 54.2016 21.6121C54.1645 21.6968 54.1104 21.7728 54.0425 21.8353Z" fill="#939598"/>
<path d="M56.125 21.9539C55.9236 21.9662 55.7242 21.9082 55.5606 21.7896C55.4734 21.7052 55.4062 21.6022 55.3639 21.4882C55.3216 21.3741 55.3054 21.252 55.3163 21.1309C55.3091 21.0012 55.3345 20.8718 55.3902 20.7546C55.4458 20.6373 55.5298 20.5361 55.6346 20.46C55.8372 20.3473 56.0677 20.2957 56.2987 20.3113C56.4708 20.3113 56.6515 20.3217 56.8476 20.339V20.6225C56.6755 20.6087 56.4742 20.5966 56.3125 20.5966C55.8652 20.5966 55.6759 20.7695 55.6759 21.1309C55.6759 21.4922 55.848 21.6686 56.1817 21.6686C56.4177 21.6598 56.6522 21.6279 56.882 21.5735V21.8536C56.6335 21.9117 56.38 21.9453 56.125 21.9539Z" fill="#939598"/>
<path d="M57.8315 20.9308C57.563 20.9308 57.4598 21.0294 57.4392 21.2058H58.2186C58.2083 21.0173 58.0999 20.9308 57.8315 20.9308ZM57.7833 21.9527C57.6098 21.9681 57.4364 21.9222 57.2929 21.823C57.2274 21.7614 57.1767 21.6857 57.1445 21.6015C57.1123 21.5174 57.0995 21.427 57.1071 21.3372C57.1021 21.2439 57.1191 21.1508 57.1568 21.0655C57.1945 20.9801 57.2517 20.905 57.3239 20.8461C57.4765 20.754 57.6539 20.7117 57.8315 20.7251C58.0061 20.7134 58.1802 20.7537 58.3321 20.8409C58.518 20.9723 58.5352 21.1764 58.5369 21.415H57.4357C57.4357 21.5879 57.5372 21.7072 57.8624 21.7072C58.0695 21.7027 58.2759 21.6831 58.4801 21.6484V21.8766C58.2502 21.9202 58.0172 21.9457 57.7833 21.9527Z" fill="#939598"/>
<path d="M59.9754 21.922V21.2788C59.9754 21.0678 59.867 20.9918 59.6743 20.9918C59.515 20.9989 59.357 21.0233 59.2029 21.0644V21.9289H58.8794V20.7653H59.1426L59.1547 20.8396C59.3562 20.7797 59.5642 20.7442 59.7741 20.7341C59.9162 20.7231 60.0572 20.7656 60.1698 20.8534C60.216 20.9009 60.2513 20.9581 60.273 21.0209C60.2947 21.0836 60.3024 21.1505 60.2954 21.2165V21.9289L59.9754 21.922Z" fill="#939598"/>
<path d="M61.2156 21.9544C61.1436 21.9604 61.0712 21.9477 61.0055 21.9174C60.9398 21.8871 60.8829 21.8403 60.8405 21.7815C60.7772 21.6778 60.7472 21.5571 60.7545 21.4357V21H60.5205V20.7579H60.7545L60.7889 20.4121H61.0762V20.7579H61.5322V21H61.0762V21.3734C61.0721 21.4485 61.0827 21.5237 61.1072 21.5947C61.1273 21.6323 61.1583 21.6627 61.1962 21.6819C61.2341 21.7011 61.2769 21.7081 61.3188 21.7019C61.3962 21.701 61.4733 21.6935 61.5494 21.6795V21.9129C61.4397 21.9371 61.3279 21.951 61.2156 21.9544Z" fill="#939598"/>
<path d="M61.8491 21.9232V20.7596H62.1124L62.1244 20.834C62.3092 20.7708 62.5022 20.7353 62.6973 20.7285H62.7386V21.0051C62.7025 21.0051 62.6578 21.0051 62.6268 21.0051C62.4735 21.0061 62.3209 21.0264 62.1726 21.0657V21.9302L61.8491 21.9232Z" fill="#939598"/>
<path d="M63.914 21.4335C63.7781 21.4214 63.6405 21.4145 63.4959 21.4145C63.2602 21.4145 63.1776 21.4629 63.1776 21.5701C63.1776 21.6773 63.2465 21.7274 63.4271 21.7274C63.5914 21.7213 63.7545 21.6981 63.914 21.6583V21.4335ZM63.9829 21.9211L63.9743 21.8519C63.7694 21.9097 63.5588 21.9439 63.3463 21.9539C63.2255 21.9606 63.1056 21.9305 63.0021 21.8675C62.9566 21.8295 62.9212 21.7807 62.8991 21.7256C62.8769 21.6705 62.8687 21.6107 62.8752 21.5516C62.8817 21.4925 62.9026 21.4359 62.9362 21.3869C62.9698 21.338 63.0149 21.2981 63.0675 21.271C63.2063 21.2207 63.3539 21.1995 63.5011 21.2088C63.6233 21.2088 63.785 21.2088 63.9209 21.226V21.2053C63.9209 21.022 63.8022 20.9632 63.477 20.9632C63.3497 20.9632 63.1966 20.9632 63.0503 20.984V20.7488C63.2121 20.735 63.3944 20.7264 63.5476 20.7264C63.7335 20.7101 63.9203 20.7473 64.0861 20.8336C64.1449 20.8805 64.1904 20.942 64.2182 21.0121C64.2459 21.0821 64.255 21.1583 64.2444 21.233V21.9246L63.9829 21.9211Z" fill="#939598"/>
<path d="M64.6514 20.2695H64.9731V21.9224H64.6514V20.2695Z" fill="#939598"/>
</g>
<defs>
<clipPath id="clip0_5683_224355">
<rect width="64.5739" height="22.9989" fill="white" transform="translate(0.597656 0.5)"/>
</clipPath>
</defs>
</svg>
